<svg xmlns="http://www.w3.org/2000/svg" xmlns:xlink="http://www.w3.org/1999/xlink" version="1.1" id="Your_Icon" x="0px" y="0px" width="100px" height="100px" viewBox="0 0 100 100" enable-background="new 0 0 100 100" xml:space="preserve">
<path d="M88.5,64.15L88.381,23h-0.107L49.829,0.803L11.631,23h-0.106l0.183,41.104L12,66.939v0.049l-0.293-2.969L0.103,70.68  l50.09,28.963l49.796-28.92L88.5,64.15z M21.015,68.875l-6.403-3.697l0.021-7.363l6.403,3.697L21.015,68.875z M21.057,54.154  l-6.403-3.697l0.021-7.358l6.403,3.697L21.057,54.154z M21.099,39.433l-6.403-3.697l0.021-7.358l6.403,3.697L21.099,39.433z   M85.293,65.174l-6.404,3.695l-0.02-7.357l6.402-3.697L85.293,65.174z M85.25,50.458l-6.402,3.697l-0.021-7.363l6.404-3.697  L85.25,50.458z M85.188,28.378l0.021,7.358l-6.402,3.697l-0.021-7.358L85.188,28.378z M72.439,57.855l-6.404,3.695l-0.02-7.363  l6.402-3.697L72.439,57.855z M53.225,68.947l-0.02-7.363l6.406-3.699l0.021,7.363L53.225,68.947z M59.654,72.605l0.02,7.357  l-6.406,3.701l-0.021-7.359L59.654,72.605z M53.184,54.227l-0.021-7.358l6.408-3.7l0.021,7.358L53.184,54.227z M72.377,35.775  l0.021,7.358l-6.404,3.697l-0.021-7.357L72.377,35.775z M40.334,43.169l6.408,3.699l-0.021,7.358l-6.408-3.7L40.334,43.169z   M40.292,57.891l6.408,3.699l-0.021,7.357l-6.408-3.699L40.292,57.891z M40.25,72.605l6.409,3.699l-0.021,7.365l-6.408-3.701  L40.25,72.605z M27.528,35.775l6.403,3.697L33.91,46.83l-6.403-3.697L27.528,35.775z M27.486,50.496l6.403,3.697l-0.021,7.357  l-6.404-3.695L27.486,50.496z M33.833,69l0.003-0.047l-0.018,7.283l-6.396-3.706l-0.004-0.009l0.1-7.365L34,68.852v0.055L33.909,69  H33.833z M66.088,79.949L66.057,68.91l6.404-3.697l0.031,11.039L66.088,79.949z"/>
</svg>